# xmcd CD database file
#
# Track frame offsets:
#	150
#	15712
#	48092
#	77690
#	107075
#	127060
#	154505
#	167640
#	197590
#	219980
#
# Disc length: 3185 seconds
#
# Revision: 0
# Processed by: cddbd v1.4PL0 Copyright (c) Steve Scherf et al.
# Submitted via: CDex 1.50beta8
#
DISCID=770c6f0a
DTITLE=Paul Bley and Jesper Lundgaard - Live Again
DYEAR=1987
DGENRE=Jazz
TTITLE0=Ictus
TTITLE1=Pent-up House
TTITLE2=Diane
TTITLE3=If I'm Lucky
TTITLE4=Blues Waltz
TTITLE5=Rebecca
TTITLE6=All The Things You Are
TTITLE7=If I Loved You
TTITLE8=What'll I Do
TTITLE9=Willow weep for me
EXTD=YEAR: 1987
EXTT0=
EXTT1=
EXTT2=
EXTT3=
EXTT4=
EXTT5=
EXTT6=
EXTT7=
EXTT8=
EXTT9=
PLAYORDER=
